# xmcd
#
# Track frame offsets:
#	150
#	13411
#	28015
#	44934
#	62064
#	75963
#	91155
#	105243
#	120380
#	137489
#	154905
#	174198
#	187925
#
# Disc length: 2702 seconds
#
# Revision: 2
# Processed by: cddbd v1.5.2PL0 Copyright (c) Steve Scherf et al.
# Submitted via: EasyCDDAExtractor 15.3.0.1
#
DISCID=990a8c0d
DTITLE=Anastacia - Evolution
DYEAR=2017
DGENRE=Pop
TTITLE0=Caught In The Middle
TTITLE1=Redlight
TTITLE2=Stamina
TTITLE3=Boxer
TTITLE4=My Everything
TTITLE5=Nobody Loves Me Better
TTITLE6=Reckless
TTITLE7=Not Coming Down
TTITLE8=Before
TTITLE9=Pain
TTITLE10=Why
TTITLE11=Boomerang
TTITLE12=Higher Livin'
EXTD=Release-Date: 15.09.2017\n\nMARO\n
EXTT0=
EXTT1=
EXTT2=
EXTT3=
EXTT4=
EXTT5=
EXTT6=
EXTT7=
EXTT8=
EXTT9=
EXTT10=
EXTT11=
EXTT12=
PLAYORDER=
